<svg width="512" height="134" viewBox="0 0 512 134" fill="none" xmlns="http://www.w3.org/2000/svg">
<path d="M483.96 100.584C479.04 100.584 474.438 100.117 470.155 99.1841C465.913 98.2086 461.651 96.7877 457.367 94.9215L457.176 76.7261H468.691L471.109 86.6509C472.933 87.4567 474.799 88.0929 476.708 88.5595C478.659 88.9836 480.822 89.1957 483.197 89.1957C487.778 89.1957 491.001 88.3898 492.867 86.7781C494.776 85.1664 495.73 83.173 495.73 80.7978C495.73 78.5075 494.733 76.5564 492.74 74.9447C490.789 73.2906 487.035 71.8697 481.479 70.6822C473.251 68.9008 467.186 66.3136 463.284 62.9205C459.424 59.485 457.494 55.0315 457.494 49.5602C457.494 45.7854 458.491 42.3711 460.484 39.3173C462.52 36.2635 465.489 33.8247 469.391 32.001C473.336 30.1348 478.171 29.2017 483.897 29.2017C489.114 29.2017 493.737 29.753 497.766 30.8558C501.838 31.9161 505.294 33.337 508.136 35.1184L508.518 52.614H497.13L495.158 43.5162C493.843 42.5832 492.316 41.8621 490.577 41.3532C488.838 40.8442 486.844 40.5897 484.597 40.5897C481.076 40.5897 478.298 41.3744 476.262 42.9437C474.226 44.4706 473.208 46.4004 473.208 48.7331C473.208 50.0904 473.527 51.3204 474.163 52.4231C474.841 53.5259 476.114 54.5438 477.98 55.4769C479.889 56.3676 482.667 57.237 486.314 58.0853C495.264 60.1636 501.668 62.8781 505.528 66.2287C509.387 69.5794 511.317 74.0116 511.317 79.5254C511.317 85.6754 509.069 90.7226 504.573 94.6671C500.078 98.6115 493.207 100.584 483.96 100.584Z" fill="black"/>
<path d="M412.769 99.2478V89.4503L422.312 87.5417V42.1803L412.197 40.2717V30.4106H438.345V87.5417L447.824 89.4503V99.2478H412.769ZM421.676 14.8236V0H438.345V14.8236H421.676Z" fill="black"/>
<path d="M391.584 100.457C385.73 100.457 381.171 98.8238 377.905 95.5579C374.639 92.2497 373.006 86.9904 373.006 79.7801V41.8623H362.954V30.4106H373.006V13.6785H388.975V30.4106H402.59V41.8623H388.975V79.7801C388.975 82.7066 389.569 84.8485 390.756 86.2057C391.986 87.5205 393.641 88.178 395.719 88.178C396.906 88.178 398.221 88.0719 399.663 87.8598C401.148 87.6478 402.335 87.4357 403.226 87.2236L404.88 98.4845C403.014 99.0358 400.872 99.5024 398.455 99.8841C396.079 100.266 393.789 100.457 391.584 100.457Z" fill="black"/>
<path d="M283.556 99.2479V89.4503L293.099 87.5417V42.1804L283.047 40.2718V30.4106H307.859L308.686 40.399C310.976 36.8363 313.818 34.0794 317.211 32.1283C320.647 30.1349 324.528 29.1382 328.854 29.1382C335.937 29.1382 341.451 31.3225 345.395 35.6911C349.34 40.0173 351.312 46.8034 351.312 56.0496V87.5417L360.855 89.4503V99.2479H326.309V89.4503L335.279 87.5417V56.1769C335.279 50.96 334.24 47.27 332.162 45.1069C330.084 42.9014 326.988 41.7986 322.873 41.7986C319.777 41.7986 317.063 42.4985 314.73 43.8981C312.44 45.2554 310.574 47.164 309.131 49.624V87.5417L317.847 89.4503V99.2479H283.556Z" fill="black"/>
<path d="M241.63 99.2478V89.4503L251.173 87.5417V42.1803L241.058 40.2717V30.4106H267.206V87.5417L276.685 89.4503V99.2478H241.63ZM250.537 14.8236V0H267.206V14.8236H250.537Z" fill="black"/>
<path d="M118.143 99.2479V89.4503L127.75 87.5417V42.1804L117.634 40.2718V30.4106H142.446L143.209 39.4447C145.457 36.1788 148.257 33.6552 151.607 31.8739C155 30.0501 158.924 29.1382 163.377 29.1382C167.873 29.1382 171.711 30.1561 174.892 32.192C178.116 34.1854 180.555 37.218 182.209 41.2897C184.329 37.5149 187.108 34.5459 190.543 32.3828C194.021 30.2197 198.093 29.1382 202.758 29.1382C209.672 29.1382 215.101 31.4921 219.045 36.2C223.032 40.908 225.025 48.0334 225.025 57.5765V87.5417L234.632 89.4503V99.2479H199.959V89.4503L208.993 87.5417V57.5129C208.993 51.7022 208.017 47.6305 206.066 45.2978C204.115 42.965 201.253 41.7986 197.478 41.7986C193.957 41.7986 191.052 42.9226 188.762 45.1705C186.514 47.4184 185.051 50.2814 184.372 53.7593V87.5417L193.088 89.4503V99.2479H159.687V89.4503L168.403 87.5417V57.5129C168.403 51.9143 167.406 47.9062 165.413 45.4886C163.42 43.0286 160.535 41.7986 156.761 41.7986C153.622 41.7986 150.971 42.4348 148.808 43.7073C146.687 44.9797 144.991 46.7822 143.718 49.115V87.5417L152.689 89.4503V99.2479H118.143Z" fill="black"/>
<path d="M96.8939 100.457C91.0408 100.457 86.4813 98.8238 83.2155 95.5579C79.9497 92.2497 78.3167 86.9904 78.3167 79.7801V41.8623H68.2647V30.4106H78.3167V13.6785H94.2855V30.4106H107.9V41.8623H94.2855V79.7801C94.2855 82.7066 94.8792 84.8485 96.0668 86.2057C97.2968 87.5205 98.9509 88.178 101.029 88.178C102.217 88.178 103.532 88.0719 104.974 87.8598C106.458 87.6478 107.646 87.4357 108.536 87.2236L110.191 98.4845C108.324 99.0358 106.182 99.5024 103.765 99.8841C101.39 100.266 99.0994 100.457 96.8939 100.457Z" fill="black"/>
<path d="M22.2035 100.584C15.2053 100.584 9.75513 98.7813 5.85308 95.1762C1.95103 91.571 0 86.6086 0 80.289C0 75.9628 1.18758 72.1668 3.56274 68.9009C5.9379 65.6351 9.41582 63.0903 13.9965 61.2665C18.5772 59.4003 24.1333 58.4672 30.665 58.4672H41.1624V52.6777C41.1624 49.0302 40.0596 46.1248 37.8541 43.9617C35.691 41.7986 32.5312 40.7171 28.3747 40.7171C25.9995 40.7171 23.9001 41.014 22.0763 41.6078C20.2525 42.1592 18.6196 42.965 17.1775 44.0254L15.7142 53.3139H3.94446L3.81722 36.3273C7.21031 34.1218 10.9851 32.3828 15.1417 31.1104C19.2982 29.7956 23.9213 29.1382 29.0109 29.1382C37.7481 29.1382 44.6191 31.1952 49.6239 35.3094C54.6711 39.3811 57.1947 45.2341 57.1947 52.8686V83.2155C57.1947 84.1486 57.1947 85.0605 57.1947 85.9512C57.2372 86.8419 57.3008 87.7114 57.3856 88.5596L64.3838 89.4503V99.2479H43.4527C43.0286 97.7634 42.6257 96.3213 42.2439 94.9217C41.9046 93.522 41.6502 92.1224 41.4805 90.7227C39.1902 93.6069 36.4121 95.982 33.1462 97.8482C29.9228 99.672 26.2752 100.584 22.2035 100.584ZM25.8299 88.1779C29.0533 88.1779 32.0647 87.4357 34.864 85.9512C37.6633 84.4243 39.7627 82.5157 41.1624 80.2254V68.7101H30.4742C25.6814 68.7101 22.0551 69.834 19.5951 72.082C17.1775 74.2875 15.9687 76.8747 15.9687 79.8436C15.9687 82.5157 16.817 84.5728 18.5135 86.0148C20.2101 87.4569 22.6489 88.1779 25.8299 88.1779Z" fill="black"/>
<rect x="118.945" y="120.964" width="393.055" height="13.0295" fill="#3ECF7F"/>
</svg>
