<svg width="513" height="135" viewBox="0 0 513 135" fill="none" xmlns="http://www.w3.org/2000/svg">
<path d="M484.187 100.881C479.267 100.881 474.665 100.414 470.381 99.481C466.14 98.5055 461.877 97.0846 457.594 95.2184L457.403 77.023H468.918L471.336 86.9478C473.159 87.7536 475.026 88.3898 476.934 88.8564C478.885 89.2805 481.048 89.4926 483.423 89.4926C488.004 89.4926 491.228 88.6867 493.094 87.075C495.002 85.4633 495.957 83.4698 495.957 81.0947C495.957 78.8043 494.96 76.8533 492.967 75.2416C491.016 73.5875 487.262 72.1666 481.706 70.979C473.477 69.1977 467.412 66.6104 463.51 63.2173C459.651 59.7818 457.721 55.3284 457.721 49.8571C457.721 46.0823 458.718 42.668 460.711 39.6142C462.747 36.5604 465.716 34.1216 469.618 32.2978C473.562 30.4316 478.397 29.4985 484.123 29.4985C489.34 29.4985 493.963 30.0499 497.993 31.1527C502.064 32.213 505.521 33.6339 508.363 35.4152L508.744 52.9108H497.356L495.384 43.8131C494.069 42.88 492.542 42.159 490.803 41.65C489.064 41.1411 487.071 40.8866 484.823 40.8866C481.303 40.8866 478.525 41.6712 476.489 43.2405C474.453 44.7674 473.435 46.6972 473.435 49.03C473.435 50.3872 473.753 51.6172 474.389 52.72C475.068 53.8227 476.34 54.8407 478.207 55.7738C480.115 56.6644 482.893 57.5339 486.541 58.3822C495.49 60.4605 501.895 63.1749 505.754 66.5256C509.614 69.8763 511.544 74.3085 511.544 79.8223C511.544 85.9722 509.296 91.0195 504.8 94.9639C500.304 98.9084 493.433 100.881 484.187 100.881Z" fill="#F1F1F1"/>
<path d="M412.996 99.5447V89.7472L422.539 87.8385V42.4772L412.423 40.5686V30.7074H438.571V87.8385L448.051 89.7472V99.5447H412.996ZM421.903 15.1204V0.296875H438.571V15.1204H421.903Z" fill="#F1F1F1"/>
<path d="M391.81 100.754C385.957 100.754 381.398 99.1206 378.132 95.8548C374.866 92.5465 373.233 87.2872 373.233 80.0769V42.1592H363.181V30.7075H373.233V13.9753H389.202V30.7075H402.816V42.1592H389.202V80.0769C389.202 83.0035 389.795 85.1454 390.983 86.5026C392.213 87.8174 393.867 88.4748 395.945 88.4748C397.133 88.4748 398.448 88.3688 399.89 88.1567C401.374 87.9447 402.562 87.7326 403.453 87.5205L405.107 98.7813C403.241 99.3327 401.099 99.7993 398.681 100.181C396.306 100.563 394.016 100.754 391.81 100.754Z" fill="#F1F1F1"/>
<path d="M283.783 99.5447V89.7472L293.326 87.8386V42.4772L283.274 40.5686V30.7075H308.086L308.913 40.6959C311.203 37.1331 314.045 34.3762 317.438 32.4252C320.873 30.4318 324.754 29.4351 329.08 29.4351C336.163 29.4351 341.677 31.6194 345.622 35.988C349.566 40.3141 351.538 47.1003 351.538 56.3465V87.8386L361.081 89.7472V99.5447H326.536V89.7472L335.506 87.8386V56.4737C335.506 51.2569 334.467 47.5669 332.389 45.4038C330.31 43.1983 327.214 42.0955 323.1 42.0955C320.004 42.0955 317.289 42.7953 314.957 44.195C312.666 45.5522 310.8 47.4608 309.358 49.9208V87.8386L318.074 89.7472V99.5447H283.783Z" fill="#F1F1F1"/>
<path d="M241.857 99.5447V89.7472L251.4 87.8385V42.4772L241.284 40.5686V30.7074H267.432V87.8385L276.912 89.7472V99.5447H241.857ZM250.764 15.1204V0.296875H267.432V15.1204H250.764Z" fill="#F1F1F1"/>
<path d="M118.37 99.5447V89.7472L127.976 87.8386V42.4772L117.861 40.5686V30.7075H142.673L143.436 39.7416C145.684 36.4757 148.483 33.9521 151.834 32.1707C155.227 30.347 159.15 29.4351 163.604 29.4351C168.1 29.4351 171.938 30.453 175.119 32.4888C178.342 34.4823 180.781 37.5148 182.435 41.5866C184.556 37.8117 187.334 34.8428 190.77 32.6797C194.248 30.5166 198.319 29.4351 202.985 29.4351C209.898 29.4351 215.327 31.789 219.272 36.4969C223.258 41.2048 225.252 48.3303 225.252 57.8734V87.8386L234.859 89.7472V99.5447H200.185V89.7472L209.22 87.8386V57.8098C209.22 51.9991 208.244 47.9274 206.293 45.5946C204.342 43.2619 201.479 42.0955 197.704 42.0955C194.184 42.0955 191.279 43.2195 188.988 45.4674C186.74 47.7153 185.277 50.5782 184.598 54.0562V87.8386L193.314 89.7472V99.5447H159.914V89.7472L168.63 87.8386V57.8098C168.63 52.2112 167.633 48.2031 165.64 45.7855C163.646 43.3255 160.762 42.0955 156.987 42.0955C153.849 42.0955 151.198 42.7317 149.035 44.0041C146.914 45.2765 145.217 47.0791 143.945 49.4119V87.8386L152.916 89.7472V99.5447H118.37Z" fill="#F1F1F1"/>
<path d="M97.1204 100.754C91.2674 100.754 86.7079 99.1206 83.442 95.8548C80.1762 92.5465 78.5433 87.2872 78.5433 80.0769V42.1592H68.4912V30.7075H78.5433V13.9753H94.512V30.7075H108.127V42.1592H94.512V80.0769C94.512 83.0035 95.1058 85.1454 96.2934 86.5026C97.5234 87.8174 99.1775 88.4748 101.256 88.4748C102.443 88.4748 103.758 88.3688 105.2 88.1567C106.685 87.9447 107.872 87.7326 108.763 87.5205L110.417 98.7813C108.551 99.3327 106.409 99.7993 103.991 100.181C101.616 100.563 99.3259 100.754 97.1204 100.754Z" fill="#F1F1F1"/>
<path d="M22.4301 100.881C15.4318 100.881 9.98169 99.0782 6.07964 95.473C2.17759 91.8679 0.226562 86.9055 0.226562 80.5859C0.226562 76.2597 1.41414 72.4637 3.7893 69.1978C6.16447 65.932 9.64238 63.3871 14.2231 61.5634C18.8037 59.6972 24.3599 58.7641 30.8916 58.7641H41.389V52.9746C41.389 49.327 40.2862 46.4217 38.0807 44.2586C35.9176 42.0955 32.7578 41.014 28.6013 41.014C26.2261 41.014 24.1266 41.3109 22.3028 41.9047C20.4791 42.456 18.8461 43.2619 17.4041 44.3222L15.9408 53.6108H4.17103L4.04379 36.6242C7.43687 34.4187 11.2117 32.6797 15.3682 31.4073C19.5247 30.0925 24.1478 29.4351 29.2375 29.4351C37.9747 29.4351 44.8457 31.4921 49.8505 35.6062C54.8977 39.6779 57.4213 45.531 57.4213 53.1655V83.5124C57.4213 84.4455 57.4213 85.3574 57.4213 86.2481C57.4637 87.1388 57.5273 88.0082 57.6122 88.8565L64.6104 89.7472V99.5447H43.6793C43.2552 98.0603 42.8522 96.6182 42.4705 95.2186C42.1312 93.8189 41.8767 92.4193 41.7071 91.0196C39.4167 93.9037 36.6386 96.2789 33.3728 98.1451C30.1494 99.9689 26.5018 100.881 22.4301 100.881ZM26.0564 88.4748C29.2799 88.4748 32.2912 87.7326 35.0905 86.2481C37.8898 84.7212 39.9893 82.8126 41.389 80.5222V69.0069H30.7007C25.908 69.0069 22.2816 70.1309 19.8216 72.3788C17.4041 74.5843 16.1953 77.1716 16.1953 80.1405C16.1953 82.8126 17.0436 84.8696 18.7401 86.3117C20.4366 87.7538 22.8754 88.4748 26.0564 88.4748Z" fill="#F1F1F1"/>
<rect x="119.171" y="121.26" width="393.055" height="13.0295" fill="#3ECF7F"/>
</svg>
