<svg width="330" height="330" viewBox="0 0 330 330" fill="none" xmlns="http://www.w3.org/2000/svg">
<rect width="330" height="330" rx="65" fill="#161616"/>
<path d="M205.273 210.514C201.471 210.514 197.986 210.012 194.818 209.009C191.65 207.881 188.989 206.188 186.835 203.931C184.047 205.937 180.752 207.442 176.95 208.445C173.275 209.448 169.41 209.95 165.355 209.95C159.146 209.95 153.444 209.009 148.248 207.128C143.179 205.248 138.744 202.427 134.942 198.665C131.267 194.904 128.416 190.265 126.388 184.748C124.361 179.106 123.347 172.586 123.347 165.188C123.347 159.044 124.361 153.277 126.388 147.885C128.416 142.368 131.331 137.604 135.132 133.592C139.061 129.58 143.813 126.445 149.388 124.188C155.091 121.806 161.554 120.615 168.777 120.615C175.747 120.615 182.019 121.179 187.595 122.307C193.171 123.436 197.606 124.627 200.901 125.881V184.183C200.901 187.694 201.534 190.139 202.802 191.518C204.196 192.772 206.033 193.399 208.314 193.399C213.763 193.399 218.008 190.076 221.05 183.431C224.218 176.661 225.802 167.006 225.802 154.468C225.802 146.694 224.408 139.485 221.62 132.839C218.959 126.069 215.03 120.239 209.835 115.349C204.639 110.459 198.303 106.635 190.826 103.876C183.477 100.992 175.176 99.5505 165.926 99.5505C156.802 99.5505 148.375 101.055 140.645 104.064C133.041 107.073 126.452 111.399 120.876 117.041C115.427 122.683 111.118 129.58 107.95 137.729C104.909 145.879 103.388 155.095 103.388 165.376C103.388 176.159 104.972 185.625 108.14 193.775C111.309 201.8 115.744 208.508 121.446 213.899C127.275 219.291 134.182 223.365 142.165 226.124C150.275 228.882 159.273 230.261 169.157 230.261C176 230.261 182.019 229.823 187.215 228.945C192.537 228.193 196.529 227.503 199.19 226.876L201.471 242.674C200.077 243.05 198.24 243.489 195.959 243.991C193.804 244.492 191.27 244.931 188.355 245.307C185.567 245.809 182.526 246.185 179.231 246.436C175.937 246.812 172.579 247 169.157 247C157.372 247 146.284 245.433 135.893 242.298C125.628 239.164 116.631 234.274 108.901 227.628C101.298 220.983 95.2149 212.52 90.6529 202.239C86.2176 191.957 84 179.67 84 165.376C84 151.709 86.281 139.735 90.843 129.454C95.405 119.047 101.488 110.459 109.091 103.688C116.694 96.792 125.375 91.6514 135.132 88.2661C145.017 84.7554 155.281 83 165.926 83C176.95 83 187.278 84.63 196.909 87.8899C206.54 91.1499 214.904 95.9144 222 102.183C229.096 108.327 234.672 115.913 238.727 124.94C242.909 133.968 245 144.249 245 155.784C245 164.687 243.986 172.523 241.959 179.294C240.058 186.064 237.333 191.769 233.785 196.408C230.237 201.047 226.055 204.558 221.24 206.94C216.424 209.323 211.102 210.514 205.273 210.514ZM180.752 190.014C180.499 188.635 180.245 187.067 179.992 185.312C179.865 183.557 179.802 181.864 179.802 180.234V138.858C177.267 138.231 173.972 137.917 169.917 137.917C165.609 137.917 161.871 138.607 158.702 139.986C155.661 141.365 153.127 143.309 151.099 145.817C149.072 148.199 147.551 151.083 146.537 154.468C145.65 157.728 145.207 161.301 145.207 165.188C145.207 173.087 146.917 179.607 150.339 184.748C153.76 189.888 159.083 192.459 166.306 192.459C168.587 192.459 170.931 192.333 173.339 192.083C175.873 191.706 178.344 191.017 180.752 190.014Z" fill="#3ECF7F"/>
</svg>
